<?xml version="1.0" encoding="UTF-8" standalone="no"?>
<svg
   xmlns:dc="http://purl.org/dc/elements/1.1/"
   xmlns:cc="http://creativecommons.org/ns#"
   xmlns:rdf="http://www.w3.org/1999/02/22-rdf-syntax-ns#"
   xmlns:svg="http://www.w3.org/2000/svg"
   xmlns="http://www.w3.org/2000/svg"
   xmlns:sodipodi="http://sodipodi.sourceforge.net/DTD/sodipodi-0.dtd"
   xmlns:inkscape="http://www.inkscape.org/namespaces/inkscape"
   height="16"
   viewBox="0 0 16 16"
   width="16"
   version="1.1"
   id="svg4"
   sodipodi:docname="ClippedCamera3D.svg"
   inkscape:version="1.0.2 (e86c870879, 2021-01-15)">
  <metadata
     id="metadata10">
    <rdf:RDF>
      <cc:Work
         rdf:about="">
        <dc:format>image/svg+xml</dc:format>
        <dc:type
           rdf:resource="http://purl.org/dc/dcmitype/StillImage" />
      </cc:Work>
    </rdf:RDF>
  </metadata>
  <defs
     id="defs8" />
  <sodipodi:namedview
     pagecolor="#ffffff"
     bordercolor="#666666"
     borderopacity="1"
     objecttolerance="10"
     gridtolerance="10"
     guidetolerance="10"
     inkscape:pageopacity="0"
     inkscape:pageshadow="2"
     inkscape:window-width="2560"
     inkscape:window-height="1016"
     id="namedview6"
     showgrid="false"
     inkscape:zoom="18.981398"
     inkscape:cx="23.621815"
     inkscape:cy="18.635997"
     inkscape:window-x="0"
     inkscape:window-y="27"
     inkscape:window-maximized="1"
     inkscape:current-layer="svg4" />
  <path
     d="M 9.5,0 C 7.9309,0.0017903 6.6282,1.2125 6.5117,2.7773 5.96067,2.27778 5.2437,2.00075 4.5,1.99996 c -1.6569,0 -3,1.3431 -3,3 0.00179,1.2698 0.80282,2.4009 2,2.8242 v 2.1758 c 0,0.554 0.44599,1 1,1 h 6 c 0.55401,0 1,-0.446 1,-1 v -1 l 3,2 v -6 l -3,2 v -1.7695 c 0.63486,-0.56783 0.99842,-1.3788 1,-2.2305 0,-1.6569 -1.3431,-3 -3,-3 z"
     fill="#fc9c9c"
     id="path2"
     sodipodi:nodetypes="cccccsssscccccccc" />
  <path
     d="m 6.7367455,15.961037 h -2 c -0.5,0 -1,-0.5 -1,-1 v -2 c -0.01829,-0.53653 0.5,-1 1,-1 h 2 v 1 h -2 v 2 h 2 z"
     fill="#fc9c9c"
     id="path2-7"
     sodipodi:nodetypes="csscscccccc" />
  <path
     d="M 11.207108,15.961037 H 9.2071074 c -0.5,0 -1,-0.5 -1,-1 v -2 c -0.01829,-0.53653 0.5,-1 1,-1 h 2.0000006 v 1 H 9.2071074 v 2 h 2.0000006 z"
     fill="#fc9c9c"
     id="path2-7-5"
     sodipodi:nodetypes="csscscccccc" />
</svg>
