<?xml version="1.0" encoding="UTF-8" standalone="no"?>
<svg
   xmlns:dc="http://purl.org/dc/elements/1.1/"
   xmlns:cc="http://creativecommons.org/ns#"
   xmlns:rdf="http://www.w3.org/1999/02/22-rdf-syntax-ns#"
   xmlns:svg="http://www.w3.org/2000/svg"
   xmlns="http://www.w3.org/2000/svg"
   xmlns:sodipodi="http://sodipodi.sourceforge.net/DTD/sodipodi-0.dtd"
   xmlns:inkscape="http://www.inkscape.org/namespaces/inkscape"
   height="16"
   viewBox="0 0 16 16"
   width="16"
   version="1.1"
   id="svg4"
   sodipodi:docname="CameraControl.svg"
   inkscape:version="1.0.2 (e86c870879, 2021-01-15)">
  <metadata
     id="metadata10">
    <rdf:RDF>
      <cc:Work
         rdf:about="">
        <dc:format>image/svg+xml</dc:format>
        <dc:type
           rdf:resource="http://purl.org/dc/dcmitype/StillImage" />
      </cc:Work>
    </rdf:RDF>
  </metadata>
  <defs
     id="defs8" />
  <sodipodi:namedview
     pagecolor="#ffffff"
     bordercolor="#666666"
     borderopacity="1"
     objecttolerance="10"
     gridtolerance="10"
     guidetolerance="10"
     inkscape:pageopacity="0"
     inkscape:pageshadow="2"
     inkscape:window-width="1568"
     inkscape:window-height="752"
     id="namedview6"
     showgrid="false"
     inkscape:zoom="22.627417"
     inkscape:cx="14.392363"
     inkscape:cy="8.4011303"
     inkscape:window-x="635"
     inkscape:window-y="182"
     inkscape:window-maximized="0"
     inkscape:current-layer="svg4"
     inkscape:document-rotation="0" />
  <path
     d="M 9.7514914,1.7652358 C 8.068889,1.7671557 6.6719566,3.0654435 6.5470295,4.743435 5.9561401,4.2077817 5.1873072,3.9107124 4.3898108,3.9098652 c -1.776754,0 -3.2170086,1.4402547 -3.2170086,3.2170086 0.00191,1.3616526 0.860893,2.574572 2.1446723,3.0284932 v 2.33319 c 0,0.594072 0.4782513,1.072335 1.0723363,1.072335 h 6.4340162 c 0.594086,0 1.072338,-0.478263 1.072338,-1.072335 v -1.072338 l 3.217009,2.144673 V 7.1268738 L 11.896165,9.2715461 V 7.3740474 c 0.680783,-0.6089048 1.070641,-1.4785373 1.072337,-2.391846 0,-1.7767539 -1.440256,-3.2170084 -3.2170106,-3.2170084 z"
     fill="#fc9c9c"
     id="path2"
     sodipodi:nodetypes="cccccsssscccccccc"
     style="fill:none;stroke:#fc9c9c;stroke-width:1.4595;stroke-linecap:square;stroke-linejoin:round;stroke-miterlimit:4;stroke-dasharray:none;stroke-opacity:1;paint-order:fill markers stroke" />
  <path
     d="m 7.292993,11.499418 h -2 c -0.4999998,0 -0.9999998,-0.5 -0.9999998,-1 V 8.4994177 c -0.01829,-0.53653 0.5,-1 0.9999998,-1 h 2 v 1 h -2 v 2.0000003 h 2 z"
     fill="#fc9c9c"
     id="path2-7"
     sodipodi:nodetypes="csscscccccc" />
  <path
     d="M 10.869293,11.499418 H 8.8692922 c -0.5,0 -1,-0.5 -1,-1 V 8.4994177 c -0.01829,-0.53653 0.5,-1 1,-1 h 2.0000008 v 1 H 8.8692922 v 2.0000003 h 2.0000008 z"
     fill="#fc9c9c"
     id="path2-7-5"
     sodipodi:nodetypes="csscscccccc" />
</svg>
