<?xml version="1.0" encoding="UTF-8" standalone="no"?>
<svg
   xmlns:dc="http://purl.org/dc/elements/1.1/"
   xmlns:cc="http://creativecommons.org/ns#"
   xmlns:rdf="http://www.w3.org/1999/02/22-rdf-syntax-ns#"
   xmlns:svg="http://www.w3.org/2000/svg"
   xmlns="http://www.w3.org/2000/svg"
   xmlns:sodipodi="http://sodipodi.sourceforge.net/DTD/sodipodi-0.dtd"
   xmlns:inkscape="http://www.inkscape.org/namespaces/inkscape"
   height="16"
   viewBox="0 0 16 16"
   width="16"
   version="1.1"
   id="svg4"
   sodipodi:docname="AIBaseResource.svg"
   inkscape:version="1.0.2 (e86c870879, 2021-01-15)">
  <metadata
     id="metadata10">
    <rdf:RDF>
      <cc:Work
         rdf:about="">
        <dc:format>image/svg+xml</dc:format>
        <dc:type
           rdf:resource="http://purl.org/dc/dcmitype/StillImage" />
      </cc:Work>
    </rdf:RDF>
  </metadata>
  <defs
     id="defs8" />
  <sodipodi:namedview
     pagecolor="#ffffff"
     bordercolor="#666666"
     borderopacity="1"
     objecttolerance="10"
     gridtolerance="10"
     guidetolerance="10"
     inkscape:pageopacity="0"
     inkscape:pageshadow="2"
     inkscape:window-width="2560"
     inkscape:window-height="1007"
     id="namedview6"
     showgrid="false"
     inkscape:zoom="52.4375"
     inkscape:cx="3.8808105"
     inkscape:cy="8"
     inkscape:window-x="0"
     inkscape:window-y="0"
     inkscape:window-maximized="1"
     inkscape:current-layer="svg4"
     inkscape:document-rotation="0" />
  <path
     d="m7.9629 1.002a1.0001 1.0001 0 0 0 -.41016.10352l-6 3a1.0001 1.0001 0 0 0 -.55273.89453v6a1.0001 1.0001 0 0 0 .55273.89453l6 3a1.0001 1.0001 0 0 0 .89453 0l6-3a1.0001 1.0001 0 0 0 .55273-.89453v-6a1.0001 1.0001 0 0 0 -.55273-.89453l-6-3a1.0001 1.0001 0 0 0 -.48438-.10352zm.037109 2.1172 3.7637 1.8809-3.7637 1.8828-3.7637-1.8828zm-5 3.498 4 2v3.7656l-4-2z"
     fill="#e0e0e0"
     fill-rule="evenodd"
     id="path2"
     style="fill:#e99cfc;fill-opacity:0.99607843" />
</svg>
