<?xml version="1.0" encoding="UTF-8" standalone="no"?>
<svg
   xmlns:dc="http://purl.org/dc/elements/1.1/"
   xmlns:cc="http://creativecommons.org/ns#"
   xmlns:rdf="http://www.w3.org/1999/02/22-rdf-syntax-ns#"
   xmlns:svg="http://www.w3.org/2000/svg"
   xmlns="http://www.w3.org/2000/svg"
   xmlns:sodipodi="http://sodipodi.sourceforge.net/DTD/sodipodi-0.dtd"
   xmlns:inkscape="http://www.inkscape.org/namespaces/inkscape"
   height="16"
   viewBox="0 0 16 16"
   width="16"
   version="1.1"
   id="svg4"
   sodipodi:docname="AIConsideration.svg"
   inkscape:version="1.0.2 (e86c870879, 2021-01-15)">
  <metadata
     id="metadata10">
    <rdf:RDF>
      <cc:Work
         rdf:about="">
        <dc:format>image/svg+xml</dc:format>
        <dc:type
           rdf:resource="http://purl.org/dc/dcmitype/StillImage" />
      </cc:Work>
    </rdf:RDF>
  </metadata>
  <defs
     id="defs8" />
  <sodipodi:namedview
     pagecolor="#ffffff"
     bordercolor="#666666"
     borderopacity="1"
     objecttolerance="10"
     gridtolerance="10"
     guidetolerance="10"
     inkscape:pageopacity="0"
     inkscape:pageshadow="2"
     inkscape:window-width="2560"
     inkscape:window-height="1007"
     id="namedview6"
     showgrid="false"
     inkscape:zoom="26.21875"
     inkscape:cx="-8.5921503"
     inkscape:cy="13.574316"
     inkscape:window-x="0"
     inkscape:window-y="0"
     inkscape:window-maximized="1"
     inkscape:current-layer="svg4"
     inkscape:document-rotation="0" />
  <path
     d="m8 2a6 6 0 0 0 -6 6 6 6 0 0 0 6 6 6 6 0 0 0 6-6 6 6 0 0 0 -6-6zm0 2a4 4 0 0 1 4 4 4 4 0 0 1 -4 4 4 4 0 0 1 -4-4 4 4 0 0 1 4-4z"
     fill="#a5efac"
     id="path2"
     style="fill:#e99cfc;fill-opacity:0.30000001" />
  <g
     aria-label="?"
     id="text832"
     style="font-size:16.7768px;line-height:1.25;font-family:'Mukti Narrow';-inkscape-font-specification:'Mukti Narrow';word-spacing:0px;fill:#e99cfc;fill-opacity:0.99607843;stroke-width:0.419421"
     transform="translate(-2.1283289,0.52451067)">
    <path
       d="M 10.839,10.340132 H 9.3317092 V 9.422651 q 0,-0.6389601 0.2293704,-1.0731254 l 0.2375621,-0.3850144 0.1638359,-0.2211785 0.04915,-0.065534 q 0.04096,-0.049151 0.09011,-0.098302 l 0.974824,-0.8929059 q 0.704495,-0.6225765 0.999399,-1.1878105 0.253946,-0.4751242 0.253946,-1.0239746 0,-1.1796188 -1.023975,-1.6793184 h -0.01638 q -0.483316,-0.2375621 -1.105893,-0.2375621 -1.3762226,0 -1.8759222,0.9748238 Q 8.0210217,4.1061748 8.0210217,5.1793002 H 6.5956491 q 0,-3.5388563 3.0145812,-3.8911035 l 0.6553437,-0.040959 q 2.113484,0 3.05554,1.3926055 l 0.01638,0.016383 v 0 0.024575 q 0.4997,0.7536454 0.4997,1.7940036 0,0.7864125 -0.335864,1.4253726 -0.352247,0.688111 -1.335263,1.5728251 -1.023975,0.9584402 -1.212386,1.3926054 -0.03277,0.081918 -0.06553,0.1720278 L 10.839,9.5373362 v 0.016384 z m 0,1.597401 v 1.744852 H 9.3317092 v -1.744852 z"
       style="fill:#e99cfc;fill-opacity:0.99607843;stroke-width:0.419421"
       id="path834" />
  </g>
</svg>
