<?xml version="1.0" encoding="UTF-8" standalone="no"?>
<svg
   xmlns:dc="http://purl.org/dc/elements/1.1/"
   xmlns:cc="http://creativecommons.org/ns#"
   xmlns:rdf="http://www.w3.org/1999/02/22-rdf-syntax-ns#"
   xmlns:svg="http://www.w3.org/2000/svg"
   xmlns="http://www.w3.org/2000/svg"
   xmlns:sodipodi="http://sodipodi.sourceforge.net/DTD/sodipodi-0.dtd"
   xmlns:inkscape="http://www.inkscape.org/namespaces/inkscape"
   height="16"
   viewBox="0 0 16 16"
   width="16"
   version="1.1"
   id="svg4"
   sodipodi:docname="AIBrainNode.svg"
   inkscape:version="1.0.2 (e86c870879, 2021-01-15)">
  <metadata
     id="metadata10">
    <rdf:RDF>
      <cc:Work
         rdf:about="">
        <dc:format>image/svg+xml</dc:format>
        <dc:type
           rdf:resource="http://purl.org/dc/dcmitype/StillImage" />
      </cc:Work>
    </rdf:RDF>
  </metadata>
  <defs
     id="defs8">
    <marker
       style="overflow:visible"
       id="TriangleOutM"
       refX="0.0"
       refY="0.0"
       orient="auto"
       inkscape:stockid="TriangleOutM"
       inkscape:isstock="true">
      <path
         transform="scale(0.4)"
         style="fill-rule:evenodd;stroke:#000000;stroke-width:1pt;stroke-opacity:1;fill:#000000;fill-opacity:1"
         d="M 5.77,0.0 L -2.88,5.0 L -2.88,-5.0 L 5.77,0.0 z "
         id="path1003" />
    </marker>
    <marker
       style="overflow:visible"
       id="TriangleOutS"
       refX="0.0"
       refY="0.0"
       orient="auto"
       inkscape:stockid="TriangleOutS"
       inkscape:isstock="true">
      <path
         transform="scale(0.2)"
         style="fill-rule:evenodd;stroke:#000000;stroke-width:1pt;stroke-opacity:1;fill:#000000;fill-opacity:1"
         d="M 5.77,0.0 L -2.88,5.0 L -2.88,-5.0 L 5.77,0.0 z "
         id="path1006" />
    </marker>
    <marker
       style="overflow:visible"
       id="TriangleInS"
       refX="0.0"
       refY="0.0"
       orient="auto"
       inkscape:stockid="TriangleInS"
       inkscape:isstock="true">
      <path
         transform="scale(-0.2)"
         style="fill-rule:evenodd;stroke:#000000;stroke-width:1pt;stroke-opacity:1;fill:#000000;fill-opacity:1"
         d="M 5.77,0.0 L -2.88,5.0 L -2.88,-5.0 L 5.77,0.0 z "
         id="path997" />
    </marker>
    <marker
       style="overflow:visible"
       id="TriangleInL"
       refX="0.0"
       refY="0.0"
       orient="auto"
       inkscape:stockid="TriangleInL"
       inkscape:isstock="true">
      <path
         transform="scale(-0.8)"
         style="fill-rule:evenodd;stroke:#000000;stroke-width:1pt;stroke-opacity:1;fill:#000000;fill-opacity:1"
         d="M 5.77,0.0 L -2.88,5.0 L -2.88,-5.0 L 5.77,0.0 z "
         id="path991" />
    </marker>
    <marker
       style="overflow:visible"
       id="Arrow1Sstart"
       refX="0.0"
       refY="0.0"
       orient="auto"
       inkscape:stockid="Arrow1Sstart"
       inkscape:isstock="true">
      <path
         transform="scale(0.2) translate(6,0)"
         style="fill-rule:evenodd;stroke:#000000;stroke-width:1pt;stroke-opacity:1;fill:#000000;fill-opacity:1"
         d="M 0.0,0.0 L 5.0,-5.0 L -12.5,0.0 L 5.0,5.0 L 0.0,0.0 z "
         id="path870" />
    </marker>
    <marker
       style="overflow:visible"
       id="Arrow1Lstart"
       refX="0.0"
       refY="0.0"
       orient="auto"
       inkscape:stockid="Arrow1Lstart"
       inkscape:isstock="true">
      <path
         transform="scale(0.8) translate(12.5,0)"
         style="fill-rule:evenodd;stroke:#000000;stroke-width:1pt;stroke-opacity:1;fill:#000000;fill-opacity:1"
         d="M 0.0,0.0 L 5.0,-5.0 L -12.5,0.0 L 5.0,5.0 L 0.0,0.0 z "
         id="path858" />
    </marker>
    <marker
       style="overflow:visible"
       id="TriangleInS-6"
       refX="0"
       refY="0"
       orient="auto"
       inkscape:stockid="TriangleInS"
       inkscape:isstock="true">
      <path
         transform="scale(-0.2)"
         style="fill:#000000;fill-opacity:1;fill-rule:evenodd;stroke:#000000;stroke-width:1pt;stroke-opacity:1"
         d="M 5.77,0 -2.88,5 V -5 Z"
         id="path997-7" />
    </marker>
    <marker
       style="overflow:visible"
       id="TriangleOutS-5"
       refX="0"
       refY="0"
       orient="auto"
       inkscape:stockid="TriangleOutS"
       inkscape:isstock="true">
      <path
         transform="scale(0.2)"
         style="fill:#000000;fill-opacity:1;fill-rule:evenodd;stroke:#000000;stroke-width:1pt;stroke-opacity:1"
         d="M 5.77,0 -2.88,5 V -5 Z"
         id="path1006-3" />
    </marker>
    <marker
       style="overflow:visible"
       id="TriangleInS-62"
       refX="0"
       refY="0"
       orient="auto"
       inkscape:stockid="TriangleInS"
       inkscape:isstock="true">
      <path
         transform="scale(-0.2)"
         style="fill:#000000;fill-opacity:1;fill-rule:evenodd;stroke:#000000;stroke-width:1pt;stroke-opacity:1"
         d="M 5.77,0 -2.88,5 V -5 Z"
         id="path997-9" />
    </marker>
    <marker
       style="overflow:visible"
       id="TriangleOutS-1"
       refX="0"
       refY="0"
       orient="auto"
       inkscape:stockid="TriangleOutS"
       inkscape:isstock="true">
      <path
         transform="scale(0.2)"
         style="fill:#000000;fill-opacity:1;fill-rule:evenodd;stroke:#000000;stroke-width:1pt;stroke-opacity:1"
         d="M 5.77,0 -2.88,5 V -5 Z"
         id="path1006-2" />
    </marker>
    <marker
       style="overflow:visible"
       id="TriangleInS-6-7"
       refX="0"
       refY="0"
       orient="auto"
       inkscape:stockid="TriangleInS"
       inkscape:isstock="true">
      <path
         transform="scale(-0.2)"
         style="fill:#000000;fill-opacity:1;fill-rule:evenodd;stroke:#000000;stroke-width:1pt;stroke-opacity:1"
         d="M 5.77,0 -2.88,5 V -5 Z"
         id="path997-7-0" />
    </marker>
    <marker
       style="overflow:visible"
       id="TriangleOutS-5-9"
       refX="0"
       refY="0"
       orient="auto"
       inkscape:stockid="TriangleOutS"
       inkscape:isstock="true">
      <path
         transform="scale(0.2)"
         style="fill:#000000;fill-opacity:1;fill-rule:evenodd;stroke:#000000;stroke-width:1pt;stroke-opacity:1"
         d="M 5.77,0 -2.88,5 V -5 Z"
         id="path1006-3-3" />
    </marker>
  </defs>
  <sodipodi:namedview
     pagecolor="#ffffff"
     bordercolor="#666666"
     borderopacity="1"
     objecttolerance="10"
     gridtolerance="10"
     guidetolerance="10"
     inkscape:pageopacity="0"
     inkscape:pageshadow="2"
     inkscape:window-width="2560"
     inkscape:window-height="1007"
     id="namedview6"
     showgrid="false"
     inkscape:zoom="26.870961"
     inkscape:cx="12.47343"
     inkscape:cy="10.225324"
     inkscape:window-x="0"
     inkscape:window-y="0"
     inkscape:window-maximized="1"
     inkscape:current-layer="g1129"
     inkscape:document-rotation="0" />
  <g
     id="g1129"
     transform="matrix(1.2170049,0,0,1.2170049,-1.7003821,-1.4145561)">
    <path
       id="rect850"
       style="fill:#9cfcf6;fill-opacity:0.996078;stroke:none;stroke-width:2.74099;stroke-linecap:square;stroke-linejoin:round;stroke-opacity:0.996078;paint-order:stroke fill markers"
       d="m 6.9863281,1.515625 c -0.2992063,0 -0.5390625,0.2418093 -0.5390625,0.5410156 v 1.90625 H 5.53125 V 3.8046875 c 0,-0.2992064 -0.2418093,-0.5410156 -0.5410156,-0.5410156 -0.2992064,0 -0.5390625,0.2418092 -0.5390625,0.5410156 v 3.9589844 c -0.026378,-0.00416 -0.050543,-0.015625 -0.078125,-0.015625 H 3.5351562 V 5.53125 c 1e-7,-0.2992064 -0.2418092,-0.5390625 -0.5410156,-0.5390625 -0.2992063,0 -0.5390625,0.2398561 -0.5390625,0.5390625 v 4.2089844 c 0,0.2992066 0.2398562,0.5390626 0.5390625,0.5390626 0.2992064,0 0.5410156,-0.239856 0.5410156,-0.5390626 V 8.9824219 h 0.8378907 c 0.027531,0 0.051793,-0.011483 0.078125,-0.015625 V 11.46875 c 0,0.299206 0.2398561,0.539062 0.5390625,0.539062 0.2992063,0 0.5410156,-0.239856 0.5410156,-0.539062 V 5.1464844 h 0.9160156 v 8.0703126 c 0,0.299206 0.2398562,0.539062 0.5390625,0.539062 0.2992064,0 0.5410157,-0.239856 0.5410157,-0.539062 V 2.0566406 c 0,-0.2992063 -0.2418093,-0.5410156 -0.5410157,-0.5410156 z" />
    <path
       id="rect850-7"
       style="fill:#9cfcf6;fill-opacity:0.5;stroke:none;stroke-width:2.74099;stroke-linecap:square;stroke-linejoin:round;stroke-opacity:0.996078;paint-order:stroke fill markers"
       d="m 8.9824219,1.5078125 c -0.2992064,0 -0.5390625,0.2398561 -0.5390625,0.5390625 v 11.160156 c 0,0.299207 0.2398561,0.539063 0.5390625,0.539063 0.2992063,0 0.5410156,-0.239856 0.5410156,-0.539063 v -2.314453 h 0.9160155 v 0.566406 c 0,0.299207 0.239856,0.541016 0.539063,0.541016 0.299206,0 0.541015,-0.241809 0.541015,-0.541016 V 7.0410156 h 0.916016 v 2.6894532 c 0,0.2992062 0.239856,0.5410152 0.539062,0.5410152 0.299207,0 0.541016,-0.241809 0.541016,-0.5410152 V 5.5234375 c 0,-0.2992064 -0.241809,-0.5410156 -0.541016,-0.5410156 -0.299206,0 -0.539062,0.2418092 -0.539062,0.5410156 v 0.28125 H 11.519531 V 3.7949219 c 0,-0.2992064 -0.241809,-0.5410157 -0.541015,-0.5410157 -0.299207,0 -0.539063,0.2418093 -0.539063,0.5410157 V 9.5585938 H 9.5234375 V 2.046875 c 0,-0.2992064 -0.2418093,-0.5390625 -0.5410156,-0.5390625 z" />
  </g>
</svg>
